<mxfile host="Electron" agent="Mozilla/5.0 (Macintosh; Intel Mac OS X 10_15_7) AppleWebKit/537.36 (KHTML, like Gecko) draw.io/26.1.1 Chrome/132.0.6834.210 Electron/34.3.3 Safari/537.36" version="26.1.1">
  <diagram name="Page-1" id="C3vdzbUzYVvbfYyoJtbM">
    <mxGraphModel dx="951" dy="878" grid="1" gridSize="10" guides="1" tooltips="1" connect="1" arrows="1" fold="1" page="1" pageScale="1" pageWidth="827" pageHeight="1169" math="0" shadow="0">
      <root>
        <mxCell id="0" />
        <mxCell id="1" parent="0" />
        <mxCell id="XfzHZexrZN1bH5VpwjbA-5" style="rounded=0;orthogonalLoop=1;jettySize=auto;html=1;endArrow=block;endFill=1;" edge="1" parent="1" source="XfzHZexrZN1bH5VpwjbA-1" target="XfzHZexrZN1bH5VpwjbA-2">
          <mxGeometry relative="1" as="geometry" />
        </mxCell>
        <mxCell id="XfzHZexrZN1bH5VpwjbA-6" style="rounded=0;orthogonalLoop=1;jettySize=auto;html=1;entryX=0.5;entryY=0;entryDx=0;entryDy=0;endArrow=block;endFill=1;exitX=0.5;exitY=1;exitDx=0;exitDy=0;" edge="1" parent="1" source="XfzHZexrZN1bH5VpwjbA-1" target="XfzHZexrZN1bH5VpwjbA-3">
          <mxGeometry relative="1" as="geometry" />
        </mxCell>
        <mxCell id="XfzHZexrZN1bH5VpwjbA-7" style="rounded=0;orthogonalLoop=1;jettySize=auto;html=1;entryX=0.5;entryY=0;entryDx=0;entryDy=0;endArrow=block;endFill=1;exitX=0.5;exitY=1;exitDx=0;exitDy=0;" edge="1" parent="1" source="XfzHZexrZN1bH5VpwjbA-1" target="XfzHZexrZN1bH5VpwjbA-4">
          <mxGeometry relative="1" as="geometry" />
        </mxCell>
        <mxCell id="XfzHZexrZN1bH5VpwjbA-1" value="3개의 DB 로부터&lt;div&gt;데이터를 가져와 합치는 코루틴&lt;/div&gt;" style="rounded=1;whiteSpace=wrap;html=1;" vertex="1" parent="1">
          <mxGeometry x="160" y="70" width="170" height="50" as="geometry" />
        </mxCell>
        <mxCell id="XfzHZexrZN1bH5VpwjbA-2" value="db2 로부터&lt;div&gt;데이터를 가져오는 코루틴&lt;/div&gt;" style="rounded=1;whiteSpace=wrap;html=1;" vertex="1" parent="1">
          <mxGeometry x="175" y="170" width="140" height="50" as="geometry" />
        </mxCell>
        <mxCell id="XfzHZexrZN1bH5VpwjbA-3" value="db1 로부터&lt;div&gt;데이터를 가져오는 코루틴&lt;/div&gt;" style="rounded=1;whiteSpace=wrap;html=1;" vertex="1" parent="1">
          <mxGeometry x="20" y="170" width="140" height="50" as="geometry" />
        </mxCell>
        <mxCell id="XfzHZexrZN1bH5VpwjbA-4" value="db3 로부터&lt;div&gt;데이터를 가져오는 코루틴&lt;/div&gt;" style="rounded=1;whiteSpace=wrap;html=1;" vertex="1" parent="1">
          <mxGeometry x="330" y="170" width="140" height="50" as="geometry" />
        </mxCell>
      </root>
    </mxGraphModel>
  </diagram>
</mxfile>
